<?xml version="1.0" encoding="UTF-8"?>
<!DOCTYPE svg PUBLIC "-//W3C//DTD SVG 1.1//EN" "http://www.w3.org/Graphics/SVG/1.1/DTD/svg11.dtd">
<!-- Creator: CorelDRAW X6 -->
<svg xmlns="http://www.w3.org/2000/svg" xml:space="preserve" width="25" height="25" version="1.1" style="shape-rendering:geometricPrecision; text-rendering:geometricPrecision; image-rendering:optimizeQuality; fill-rule:evenodd; clip-rule:evenodd"
viewBox="0 0 116 116"
 xmlns:xlink="http://www.w3.org/1999/xlink">
 <defs>
  <style type="text/css">
   <![CDATA[
    .fil37 {fill:#242521}
    .fil3 {fill:#242521;fill-rule:nonzero}
    .fil39 {fill:#7A787A;fill-rule:nonzero}
    .fil2 {fill:url(#id0)}
    .fil1 {fill:url(#id1)}
    .fil0 {fill:url(#id2)}
    .fil40 {fill:url(#id3)}
    .fil9 {fill:url(#id4)}
    .fil31 {fill:url(#id5)}
    .fil29 {fill:url(#id6)}
    .fil27 {fill:url(#id7)}
    .fil5 {fill:url(#id8)}
    .fil23 {fill:url(#id9)}
    .fil13 {fill:url(#id10)}
    .fil15 {fill:url(#id11)}
    .fil19 {fill:url(#id12)}
    .fil33 {fill:url(#id13)}
    .fil21 {fill:url(#id14)}
    .fil25 {fill:url(#id15)}
    .fil11 {fill:url(#id16)}
    .fil35 {fill:url(#id17)}
    .fil7 {fill:url(#id18)}
    .fil17 {fill:url(#id19)}
    .fil38 {fill:url(#id20)}
    .fil36 {fill:url(#id21)}
    .fil10 {fill:url(#id22)}
    .fil32 {fill:url(#id23)}
    .fil30 {fill:url(#id24)}
    .fil28 {fill:url(#id25)}
    .fil6 {fill:url(#id26)}
    .fil18 {fill:url(#id27)}
    .fil24 {fill:url(#id28)}
    .fil14 {fill:url(#id29)}
    .fil16 {fill:url(#id30)}
    .fil20 {fill:url(#id31)}
    .fil34 {fill:url(#id32)}
    .fil26 {fill:url(#id33)}
    .fil22 {fill:url(#id34)}
    .fil8 {fill:url(#id35)}
    .fil12 {fill:url(#id36)}
    .fil4 {fill:url(#id37)}
   ]]>
  </style>
  <linearGradient id="id0" gradientUnits="userSpaceOnUse" x1="-0.444977" y1="-3.33584" x2="96.7506" y2="93.8511">
   <stop offset="0" style="stop-color:#FEFEFE"/>
   <stop offset="0.0313725" style="stop-color:#FEFEFE"/>
   <stop offset="0.2" style="stop-color:#8A8789"/>
   <stop offset="0.4" style="stop-color:#F6F7F7"/>
   <stop offset="0.619608" style="stop-color:#6D6769"/>
   <stop offset="1" style="stop-color:#F3F3F3"/>
  </linearGradient>
  <linearGradient id="id1" gradientUnits="userSpaceOnUse" x1="4.98417" y1="-7.48409" x2="111.2" y2="123.669">
   <stop offset="0" style="stop-color:#FEFEFE"/>
   <stop offset="0.0313725" style="stop-color:#FEFEFE"/>
   <stop offset="0.160784" style="stop-color:#676264"/>
   <stop offset="0.270588" style="stop-color:#F6F7F7"/>
   <stop offset="0.419608" style="stop-color:#242521"/>
   <stop offset="0.811765" style="stop-color:#F3F3F3"/>
   <stop offset="0.968627" style="stop-color:#242521"/>
   <stop offset="1" style="stop-color:#242521"/>
  </linearGradient>
  <linearGradient id="id2" gradientUnits="userSpaceOnUse" x1="46.4659" y1="-6.47931" x2="69.7187" y2="122.663">
   <stop offset="0" style="stop-color:#F6F4F3"/>
   <stop offset="0.478431" style="stop-color:#362D29"/>
   <stop offset="0.780392" style="stop-color:#E3E1E4"/>
   <stop offset="0.968627" style="stop-color:#362D29"/>
   <stop offset="1" style="stop-color:#362D29"/>
  </linearGradient>
  <linearGradient id="id3" gradientUnits="userSpaceOnUse" x1="88.5309" y1="115.677" x2="27.6531" y2="0.507927">
   <stop offset="0" style="stop-color:#FEFEFE"/>
   <stop offset="0.0392157" style="stop-color:#FEFEFE"/>
   <stop offset="0.458824" style="stop-color:#362D29"/>
   <stop offset="0.619608" style="stop-color:#E3E1E4"/>
   <stop offset="0.980392" style="stop-color:#242521"/>
   <stop offset="1" style="stop-color:#242521"/>
  </linearGradient>
  <linearGradient id="id4" gradientUnits="userSpaceOnUse" x1="4.58188" y1="66.2434" x2="5.40213" y2="68.4972">
   <stop offset="0" style="stop-color:#FEFEFE"/>
   <stop offset="0.0784314" style="stop-color:#FEFEFE"/>
   <stop offset="0.988235" style="stop-color:#787478"/>
   <stop offset="1" style="stop-color:#787478"/>
  </linearGradient>
  <linearGradient id="id5" gradientUnits="userSpaceOnUse" xlink:href="#id4" x1="66.1402" y1="3.01298" x2="66.9605" y2="5.26677">
  </linearGradient>
  <linearGradient id="id6" gradientUnits="userSpaceOnUse" xlink:href="#id4" x1="87.7698" y1="11.9892" x2="88.5895" y2="14.2414">
  </linearGradient>
  <linearGradient id="id7" gradientUnits="userSpaceOnUse" xlink:href="#id4" x1="101.458" y1="24.9346" x2="102.278" y2="27.1873">
  </linearGradient>
  <linearGradient id="id8" gradientUnits="userSpaceOnUse" xlink:href="#id4" x1="26.195" y1="12.6852" x2="27.0152" y2="14.939">
  </linearGradient>
  <linearGradient id="id9" gradientUnits="userSpaceOnUse" xlink:href="#id4" x1="110.417" y1="65.4896" x2="111.237" y2="67.7423">
  </linearGradient>
  <linearGradient id="id10" gradientUnits="userSpaceOnUse" xlink:href="#id4" x1="27.4713" y1="101.268" x2="28.2915" y2="103.521">
  </linearGradient>
  <linearGradient id="id11" gradientUnits="userSpaceOnUse" xlink:href="#id4" x1="47.4777" y1="108.853" x2="48.2979" y2="111.107">
  </linearGradient>
  <linearGradient id="id12" gradientUnits="userSpaceOnUse" xlink:href="#id4" x1="88.074" y1="100.837" x2="88.8943" y2="103.091">
  </linearGradient>
  <linearGradient id="id13" gradientUnits="userSpaceOnUse" xlink:href="#id4" x1="44.0405" y1="4.17473" x2="44.8602" y2="6.4269">
  </linearGradient>
  <linearGradient id="id14" gradientUnits="userSpaceOnUse" xlink:href="#id4" x1="103.667" y1="83.735" x2="104.487" y2="85.9877">
  </linearGradient>
  <linearGradient id="id15" gradientUnits="userSpaceOnUse" xlink:href="#id4" x1="110.213" y1="46.0174" x2="111.033" y2="48.2712">
  </linearGradient>
  <linearGradient id="id16" gradientUnits="userSpaceOnUse" xlink:href="#id4" x1="12.3318" y1="86.5456" x2="13.1521" y2="88.7983">
  </linearGradient>
  <linearGradient id="id17" gradientUnits="userSpaceOnUse" xlink:href="#id4" x1="4.33764" y1="46.7998" x2="5.15735" y2="49.0531">
  </linearGradient>
  <linearGradient id="id18" gradientUnits="userSpaceOnUse" xlink:href="#id4" x1="11.5729" y1="28.9508" x2="12.3926" y2="31.204">
  </linearGradient>
  <linearGradient id="id19" gradientUnits="userSpaceOnUse" xlink:href="#id4" x1="69.9915" y1="108.68" x2="70.8112" y2="110.934">
  </linearGradient>
  <radialGradient id="id20" gradientUnits="objectBoundingBox" cx="26%" cy="14.0003%" r="50%" fx="26%" fy="14.0003%">
   <stop offset="0" style="stop-color:#F6ED7F"/>
   <stop offset="0.2" style="stop-color:#F6ED7F"/>
   <stop offset="1" style="stop-color:#F4BD7F"/>
  </radialGradient>
  <radialGradient id="id21" gradientUnits="objectBoundingBox" cx="14.0002%" cy="0.99985%" r="42.0002%" fx="14.0002%" fy="0.99985%">
   <stop offset="0" style="stop-color:#F6E237"/>
   <stop offset="0.180392" style="stop-color:#F6E237"/>
   <stop offset="1" style="stop-color:#EF7F2C"/>
  </radialGradient>
  <radialGradient id="id22" gradientUnits="objectBoundingBox" cx="23.0023%" cy="13.998%" r="39.0061%" fx="23.0023%" fy="13.998%">
   <stop offset="0" style="stop-color:#FEFEFE"/>
   <stop offset="0.0509804" style="stop-color:#FEFEFE"/>
   <stop offset="1" style="stop-color:#242521"/>
  </radialGradient>
  <radialGradient id="id23" gradientUnits="objectBoundingBox" xlink:href="#id22" cx="22.9966%" cy="13.998%" r="39.0016%" fx="22.9966%" fy="13.998%">
  </radialGradient>
  <radialGradient id="id24" gradientUnits="objectBoundingBox" xlink:href="#id22" cx="23.0062%" cy="14.0022%" r="39.0004%" fx="23.0062%" fy="14.0022%">
  </radialGradient>
  <radialGradient id="id25" gradientUnits="objectBoundingBox" xlink:href="#id22" cx="23.0023%" cy="14.0022%" r="39.0004%" fx="23.0023%" fy="14.0022%">
  </radialGradient>
  <radialGradient id="id26" gradientUnits="objectBoundingBox" xlink:href="#id22" cx="23.0023%" cy="13.998%" r="39.0061%" fx="23.0023%" fy="13.998%">
  </radialGradient>
  <radialGradient id="id27" gradientUnits="objectBoundingBox" xlink:href="#id22" cx="22.9972%" cy="13.998%" r="38.9975%" fx="22.9972%" fy="13.998%">
  </radialGradient>
  <radialGradient id="id28" gradientUnits="objectBoundingBox" xlink:href="#id22" cx="22.9966%" cy="13.998%" r="39.0016%" fx="22.9966%" fy="13.998%">
  </radialGradient>
  <radialGradient id="id29" gradientUnits="objectBoundingBox" xlink:href="#id22" cx="23.0023%" cy="13.9949%" r="39.0004%" fx="23.0023%" fy="13.9949%">
  </radialGradient>
  <radialGradient id="id30" gradientUnits="objectBoundingBox" xlink:href="#id22" cx="23.0062%" cy="13.9949%" r="39.0004%" fx="23.0062%" fy="13.9949%">
  </radialGradient>
  <radialGradient id="id31" gradientUnits="objectBoundingBox" xlink:href="#id22" cx="22.9972%" cy="13.998%" r="38.9975%" fx="22.9972%" fy="13.998%">
  </radialGradient>
  <radialGradient id="id32" gradientUnits="objectBoundingBox" xlink:href="#id22" cx="23.0006%" cy="14.0022%" r="39.0004%" fx="23.0006%" fy="14.0022%">
  </radialGradient>
  <radialGradient id="id33" gradientUnits="objectBoundingBox" xlink:href="#id22" cx="23.0062%" cy="14.0054%" r="39.0036%" fx="23.0062%" fy="14.0054%">
  </radialGradient>
  <radialGradient id="id34" gradientUnits="objectBoundingBox" xlink:href="#id22" cx="22.9966%" cy="13.9937%" r="39.0016%" fx="22.9966%" fy="13.9937%">
  </radialGradient>
  <radialGradient id="id35" gradientUnits="objectBoundingBox" xlink:href="#id22" cx="23.0023%" cy="14.0012%" r="38.9975%" fx="23.0023%" fy="14.0012%">
  </radialGradient>
  <radialGradient id="id36" gradientUnits="objectBoundingBox" xlink:href="#id22" cx="23.0028%" cy="14.0012%" r="39.002%" fx="23.0028%" fy="14.0012%">
  </radialGradient>
  <radialGradient id="id37" gradientUnits="objectBoundingBox" xlink:href="#id22" cx="23.0006%" cy="14.0012%" r="38.9975%" fx="23.0006%" fy="14.0012%">
  </radialGradient>
 </defs>
 <g id="Layer_x0020_1">
  <metadata id="CorelCorpID_0Corel-Layer"/>
  <path class="fil0" d="M115 68c-5,32 -35,53 -67,47 -32,-5 -53,-35 -47,-67 5,-32 36,-53 67,-47 32,5 53,36 47,67z"/>
  <path class="fil1" d="M114 68c-6,31 -35,51 -66,46 -31,-6 -51,-35 -46,-66 6,-31 35,-51 66,-46 31,6 51,35 46,66z"/>
  <path class="fil2" d="M97 17c-40,4 -75,49 -83,77 -10,-13 -15,-29 -12,-46 6,-31 35,-51 66,-46 11,2 21,8 29,15z"/>
  <path class="fil3" d="M29 15c0,1 -1,2 -2,2 -1,-1 -2,-1 -2,-2 0,-1 1,-2 2,-2 1,0 2,1 2,2z"/>
  <path class="fil4" d="M28 15c0,1 -1,1 -2,1 0,0 -1,-1 -1,-2 0,-1 1,-1 2,-1 1,0 2,1 1,2z"/>
  <path class="fil5" d="M28 13c0,1 -1,1 -1,1 -1,0 -2,1 -2,0 0,0 1,-1 1,-1 1,0 2,0 2,0z"/>
  <path class="fil3" d="M14 32c0,0 -1,1 -2,1 -1,0 -1,-1 -1,-2 0,-1 1,-2 2,-1 1,0 1,1 1,2z"/>
  <path class="fil6" d="M14 31c0,1 -1,2 -2,1 -1,0 -2,-1 -2,-2 1,0 2,-1 2,-1 1,0 2,1 2,2z"/>
  <path class="fil7" d="M13 30c0,0 0,0 -1,0 -1,0 -1,1 -1,1 -1,-1 0,-1 1,-2 0,0 1,0 1,1z"/>
  <path class="fil3" d="M7 69c0,1 -1,1 -2,1 -1,0 -1,-1 -1,-2 0,-1 1,-1 2,-1 1,0 1,1 1,2z"/>
  <path class="fil8" d="M7 68c0,1 -1,2 -2,2 -1,0 -2,-1 -2,-2 1,-1 2,-2 2,-2 1,1 2,1 2,2z"/>
  <path class="fil9" d="M6 67c0,1 0,0 -1,0 -1,1 -1,1 -1,1 0,-1 0,-1 1,-1 0,-1 1,0 1,0z"/>
  <path class="fil3" d="M15 89c0,1 -1,2 -2,2 -1,-1 -2,-2 -2,-2 1,-1 1,-2 2,-2 1,0 2,1 2,2z"/>
  <path class="fil10" d="M15 89c-1,1 -1,1 -2,1 -1,0 -2,-1 -2,-2 0,-1 1,-1 2,-1 1,0 2,1 2,2z"/>
  <path class="fil11" d="M14 87c0,1 -1,0 -1,1 -1,0 -1,1 -2,0 0,0 1,-1 1,-1 1,0 2,0 2,0z"/>
  <path class="fil3" d="M30 104c0,1 -1,1 -2,1 -1,0 -2,-1 -1,-2 0,-1 1,-1 2,-1 0,0 1,1 1,2z"/>
  <path class="fil12" d="M30 103c0,1 -1,2 -2,2 -1,0 -2,-1 -2,-2 1,-1 1,-2 2,-2 1,1 2,1 2,2z"/>
  <path class="fil13" d="M29 102c0,1 0,0 -1,0 -1,1 -1,1 -1,1 -1,-1 0,-1 1,-1 0,-1 1,0 1,0z"/>
  <path class="fil3" d="M50 111c0,1 -1,2 -2,2 -1,0 -2,-1 -1,-2 0,-1 1,-2 2,-2 0,1 1,2 1,2z"/>
  <path class="fil14" d="M50 111c0,1 -1,2 -2,1 -1,0 -2,-1 -2,-2 1,-1 1,-1 2,-1 1,0 2,1 2,2z"/>
  <path class="fil15" d="M49 110c0,0 0,0 -1,0 -1,0 -1,1 -1,1 -1,-1 0,-2 1,-2 0,0 1,0 1,1z"/>
  <path class="fil3" d="M72 111c0,1 -1,2 -2,2 0,-1 -1,-1 -1,-2 0,-1 1,-2 2,-2 1,0 2,1 1,2z"/>
  <path class="fil16" d="M72 111c0,1 -1,1 -2,1 -1,0 -1,-1 -1,-2 0,-1 1,-1 2,-1 1,0 1,1 1,2z"/>
  <path class="fil17" d="M72 109c0,1 -1,1 -2,1 0,0 -1,1 -1,0 0,0 0,-1 1,-1 1,0 2,0 2,0z"/>
  <path class="fil3" d="M91 103c-1,1 -1,2 -2,2 -1,0 -2,-1 -2,-2 0,-1 1,-2 2,-2 1,1 2,1 2,2z"/>
  <path class="fil18" d="M90 103c0,1 -1,2 -2,1 -1,0 -1,-1 -1,-2 0,-1 1,-1 2,-1 1,0 2,1 1,2z"/>
  <path class="fil19" d="M90 102c0,0 -1,0 -2,0 0,0 -1,1 -1,1 0,-1 0,-2 1,-2 1,0 2,0 2,1z"/>
  <path class="fil3" d="M106 86c0,1 -1,2 -2,2 -1,0 -1,-1 -1,-2 0,-1 1,-2 2,-2 1,1 1,1 1,2z"/>
  <path class="fil20" d="M106 86c0,1 -1,1 -2,1 -1,0 -2,-1 -1,-2 0,-1 1,-1 2,-1 0,0 1,1 1,2z"/>
  <path class="fil21" d="M105 85c1,0 0,0 -1,0 -1,0 -1,1 -1,0 0,0 0,-1 1,-1 0,0 1,0 1,1z"/>
  <path class="fil3" d="M113 68c0,1 -1,2 -2,1 -1,0 -2,-1 -1,-2 0,0 1,-1 2,-1 0,0 1,1 1,2z"/>
  <path class="fil22" d="M113 68c0,1 -1,1 -2,1 -1,0 -2,-1 -2,-2 0,-1 1,-2 2,-1 1,0 2,1 2,2z"/>
  <path class="fil23" d="M112 66c0,1 -1,0 -1,1 -1,0 -1,1 -1,0 -1,0 0,-1 1,-1 0,0 1,0 1,0z"/>
  <path class="fil3" d="M113 49c0,1 -1,1 -2,1 -1,0 -2,-1 -2,-2 0,-1 1,-2 2,-1 1,0 2,1 2,2z"/>
  <path class="fil24" d="M112 48c0,1 -1,2 -1,2 -1,-1 -2,-2 -2,-2 0,-1 1,-2 2,-2 1,0 2,1 1,2z"/>
  <path class="fil25" d="M112 47c0,0 -1,0 -1,0 -1,0 -2,1 -2,1 0,-1 1,-1 1,-2 1,0 2,0 2,1z"/>
  <path class="fil3" d="M104 28c0,0 -1,1 -2,1 -1,0 -2,-1 -1,-2 0,-1 1,-2 2,-1 0,0 1,1 1,2z"/>
  <path class="fil26" d="M104 27c0,1 -1,2 -2,1 -1,0 -2,-1 -2,-2 1,0 1,-1 2,-1 1,0 2,1 2,2z"/>
  <path class="fil27" d="M103 26c0,0 0,0 -1,0 -1,0 -1,1 -1,1 -1,-1 0,-2 1,-2 0,0 1,0 1,1z"/>
  <path class="fil3" d="M90 15c0,1 -1,1 -2,1 -1,0 -1,-1 -1,-2 0,-1 1,-2 2,-1 1,0 1,1 1,2z"/>
  <path class="fil28" d="M90 14c0,1 -1,2 -2,1 -1,0 -1,-1 -1,-1 0,-1 1,-2 2,-2 1,0 1,1 1,2z"/>
  <path class="fil29" d="M89 13c1,0 0,0 -1,0 -1,0 -1,1 -1,1 0,-1 0,-1 1,-2 1,0 1,0 1,1z"/>
  <path class="fil3" d="M69 6c-1,1 -1,1 -2,1 -1,0 -2,-1 -2,-2 0,-1 1,-2 2,-1 1,0 2,1 2,2z"/>
  <path class="fil30" d="M68 5c0,1 -1,2 -2,2 0,-1 -1,-2 -1,-2 0,-1 1,-2 2,-2 1,0 2,1 1,2z"/>
  <path class="fil31" d="M68 4c0,0 -1,0 -2,0 0,0 -1,1 -1,1 0,-1 1,-1 1,-2 1,0 2,0 2,1z"/>
  <path class="fil3" d="M47 7c-1,1 -2,1 -2,1 -1,0 -2,-1 -2,-2 0,-1 1,-1 2,-1 1,0 2,1 2,2z"/>
  <path class="fil32" d="M46 6c0,1 -1,2 -2,2 -1,0 -1,-1 -1,-2 0,-1 1,-2 2,-2 1,0 1,1 1,2z"/>
  <path class="fil33" d="M46 5c0,0 -1,0 -2,0 0,1 -1,1 -1,1 0,-1 0,-1 1,-2 1,0 2,0 2,1z"/>
  <path class="fil3" d="M7 49c0,1 -1,2 -2,2 -1,0 -2,-1 -2,-2 1,-1 1,-2 2,-2 1,1 2,1 2,2z"/>
  <path class="fil34" d="M7 49c-1,1 -1,1 -2,1 -1,0 -2,-1 -2,-2 0,-1 1,-1 2,-1 1,0 2,1 2,2z"/>
  <path class="fil35" d="M6 48c0,0 -1,0 -1,0 -1,0 -1,1 -2,0 0,0 1,-1 1,-1 1,0 2,0 2,1z"/>
  <path class="fil36" d="M88 18c-4,1 -8,2 -12,4 2,3 4,7 4,12 0,5 -2,10 -4,13 1,0 2,0 3,0 3,0 7,1 11,3 8,5 12,13 11,22 0,-7 -4,-14 -10,-18 -3,-2 -7,-3 -10,-3 -7,0 -13,3 -17,10l-2 -1c0,-1 0,-1 0,-2 0,-1 0,-2 0,-3 -1,0 -2,-1 -3,-1l0 -3c10,0 18,-9 18,-20 0,-3 -1,-6 -2,-9 -12,5 -22,13 -31,23 3,3 8,6 13,6l0 3c-1,0 -2,1 -3,2l0 0 0 0c0,1 0,1 0,2 0,1 0,1 0,2l-2 1c-4,-5 -9,-9 -15,-9 -9,11 -16,23 -20,34 7,11 18,19 32,21 3,1 6,1 9,1 24,0 45,-17 49,-41l0 0c1,-3 1,-6 1,-9 0,-16 -7,-31 -20,-40l0 0zm-42 28c0,0 -1,0 -1,0 0,-1 -1,-1 -1,-2 4,-3 9,-5 14,-5 5,0 10,2 14,5 -1,1 -1,2 -2,2 -3,-3 -7,-5 -12,-5 -5,0 -9,2 -12,5l0 0zm-5 2c0,0 -1,0 -1,0 1,0 1,0 1,0 0,0 0,0 0,0l0 0z"/>
  <path class="fil3" d="M108 67l-1 0c-4,24 -25,41 -49,41 -3,0 -6,0 -9,-1 -24,-4 -41,-25 -41,-49 0,-3 0,-6 1,-9 4,-24 25,-41 49,-41 3,0 6,0 9,1 24,4 41,25 41,49 0,3 0,6 -1,9l1 0 0 0c0,-3 1,-6 1,-9 0,-24 -18,-45 -42,-50 -3,0 -6,0 -9,0 -24,0 -45,17 -50,41 0,3 0,6 0,9 0,24 17,46 41,50 3,0 6,1 9,1 24,0 46,-18 50,-42l0 0 0 0z"/>
  <path class="fil37" d="M66 14c8,3 14,11 14,20 0,5 -2,10 -4,13 4,0 9,0 14,3 8,5 12,13 11,22 0,-7 -4,-14 -10,-18 -10,-6 -22,-3 -27,7l-2 -1c0,-1 0,-1 0,-2 0,-1 0,-2 0,-3 -1,0 -2,-1 -3,-1l0 -3c10,0 18,-9 18,-20 0,-7 -4,-14 -11,-17l0 0z"/>
  <path class="fil37" d="M16 73c-2,-9 3,-18 10,-22 5,-3 10,-4 15,-3 -3,-4 -5,-9 -5,-14 0,-9 5,-17 13,-20 -6,3 -10,10 -10,17 0,11 8,20 18,20l0 3c-1,0 -2,1 -3,2l0 0 0 0c0,1 0,1 0,2 0,1 0,1 0,2l-2 1c-6,-9 -17,-12 -27,-6 -6,3 -10,11 -9,18l0 0z"/>
  <path class="fil37" d="M92 87c-7,5 -16,6 -24,1 -5,-2 -8,-6 -10,-11 -1,5 -5,9 -10,12 -7,5 -17,4 -24,-2 6,4 14,5 21,1 9,-5 12,-17 8,-26l2 -1c1,1 2,1 3,1l0 0 0 0 0 0 0 0 0 0 0 0 0 0 0 0 0 0 0 0 0 0 0 0 0 0 0 0 0 0c1,0 3,0 3,-1l2 1c-4,9 -1,20 8,25 7,4 15,4 21,0z"/>
  <path class="fil37" d="M42 53c-1,2 -1,3 -1,5 0,7 5,14 11,16 1,0 1,0 2,0 0,1 -1,2 -1,3 0,0 -1,0 -1,0 -8,-3 -14,-10 -14,-19 0,-2 1,-4 1,-5 1,0 2,0 3,0z"/>
  <path class="fil37" d="M77 52c0,2 1,4 1,6 0,7 -4,14 -10,17 -2,1 -3,2 -5,2 0,-1 0,-2 -1,-3 2,0 3,0 4,-1 5,-3 9,-8 9,-15 0,-2 0,-4 -1,-5 1,-1 2,-1 3,-1z"/>
  <path class="fil37" d="M58 39c5,0 10,2 14,5 -1,1 -1,2 -2,2 -3,-3 -7,-5 -12,-5 -5,0 -9,2 -12,5 0,0 -1,0 -1,0 0,-1 -1,-1 -1,-2 4,-3 9,-5 14,-5l0 0z"/>
  <path class="fil38" d="M58 8c-24,0 -45,17 -49,41 -1,3 -1,6 -1,9 0,10 3,20 9,28 4,-11 11,-23 20,-34 0,0 -1,0 -2,0 -3,0 -6,1 -10,3 -6,3 -10,11 -9,18 -2,-9 3,-18 10,-22 4,-2 8,-3 11,-3 1,0 2,0 3,0 0,0 1,0 1,0 -3,-4 -5,-9 -5,-14 0,-9 5,-17 13,-20 -6,3 -10,10 -10,17 0,6 1,10 5,14 9,-10 19,-18 31,-23 -2,-3 -5,-6 -9,-8 4,1 8,4 10,8 4,-2 8,-3 12,-4 -6,-5 -13,-8 -21,-9 -3,-1 -6,-1 -9,-1l0 0zm-9 6l0 0z"/>
  <path class="fil39" d="M58 8c-24,0 -45,17 -49,41 -3,14 0,27 7,37 0,0 1,0 1,0 -6,-8 -9,-18 -9,-28 0,-3 0,-6 1,-9 4,-24 25,-41 49,-41 3,0 6,0 9,1 8,1 15,4 21,9 0,0 0,0 0,0 -6,-5 -13,-8 -21,-9 -3,-1 -6,-1 -9,-1l0 0z"/>
  <path class="fil39" d="M66 14c4,2 7,5 9,8 0,0 1,0 1,0 -2,-4 -6,-7 -10,-8l0 0z"/>
  <path class="fil39" d="M49 14c-8,3 -13,11 -13,20 0,5 2,10 5,14 1,-1 2,-2 3,-3 -4,-4 -5,-8 -5,-14 0,-7 4,-14 10,-17l0 0zm-12 34c-3,0 -7,1 -11,3 -7,4 -12,13 -10,22 -1,-7 3,-15 9,-18 4,-2 7,-3 10,-3 1,0 2,0 2,0 1,-1 2,-3 3,-4 -1,0 -2,0 -3,0l0 0z"/>
  <path class="fil40" d="M49 107c-27,-4 -45,-30 -40,-58 5,-27 31,-45 58,-40 27,5 45,31 40,58 -4,27 -30,45 -58,40zm18 -99c-28,-5 -54,14 -59,41 -5,28 14,54 41,59 28,5 54,-14 59,-41 5,-28 -14,-54 -41,-59z"/>
 </g>
</svg>
