<?xml version="1.0" encoding="UTF-8"?>
<!DOCTYPE svg PUBLIC "-//W3C//DTD SVG 1.1//EN" "http://www.w3.org/Graphics/SVG/1.1/DTD/svg11.dtd">
<!-- Creator: CorelDRAW X6 -->
<svg xmlns="http://www.w3.org/2000/svg" xml:space="preserve" width="25" height="25" version="1.1" style="shape-rendering:geometricPrecision; text-rendering:geometricPrecision; image-rendering:optimizeQuality; fill-rule:evenodd; clip-rule:evenodd"
viewBox="0 0 74 74"
 xmlns:xlink="http://www.w3.org/1999/xlink">
 <defs>
  <style type="text/css">
   <![CDATA[
    .fil3 {fill:#242521;fill-rule:nonzero}
    .fil38 {fill:#7A787A;fill-rule:nonzero}
    .fil2 {fill:url(#id0)}
    .fil1 {fill:url(#id1)}
    .fil0 {fill:url(#id2)}
    .fil39 {fill:url(#id3)}
    .fil5 {fill:url(#id4)}
    .fil15 {fill:url(#id5)}
    .fil31 {fill:url(#id6)}
    .fil23 {fill:url(#id7)}
    .fil33 {fill:url(#id8)}
    .fil25 {fill:url(#id9)}
    .fil7 {fill:url(#id10)}
    .fil21 {fill:url(#id11)}
    .fil29 {fill:url(#id12)}
    .fil19 {fill:url(#id13)}
    .fil35 {fill:url(#id14)}
    .fil9 {fill:url(#id15)}
    .fil11 {fill:url(#id16)}
    .fil13 {fill:url(#id17)}
    .fil17 {fill:url(#id18)}
    .fil27 {fill:url(#id19)}
    .fil37 {fill:url(#id20)}
    .fil36 {fill:url(#id21)}
    .fil6 {fill:url(#id22)}
    .fil32 {fill:url(#id23)}
    .fil16 {fill:url(#id24)}
    .fil28 {fill:url(#id25)}
    .fil18 {fill:url(#id26)}
    .fil24 {fill:url(#id27)}
    .fil34 {fill:url(#id28)}
    .fil14 {fill:url(#id29)}
    .fil26 {fill:url(#id30)}
    .fil10 {fill:url(#id31)}
    .fil8 {fill:url(#id32)}
    .fil22 {fill:url(#id33)}
    .fil12 {fill:url(#id34)}
    .fil30 {fill:url(#id35)}
    .fil20 {fill:url(#id36)}
    .fil4 {fill:url(#id37)}
   ]]>
  </style>
  <linearGradient id="id0" gradientUnits="userSpaceOnUse" x1="-0.282671" y1="-2.11652" x2="61.3861" y2="59.5468">
   <stop offset="0" style="stop-color:#FEFEFE"/>
   <stop offset="0.0313725" style="stop-color:#FEFEFE"/>
   <stop offset="0.2" style="stop-color:#8A8789"/>
   <stop offset="0.4" style="stop-color:#F6F7F7"/>
   <stop offset="0.619608" style="stop-color:#6D6769"/>
   <stop offset="1" style="stop-color:#F3F3F3"/>
  </linearGradient>
  <linearGradient id="id1" gradientUnits="userSpaceOnUse" x1="3.162" y1="-4.74883" x2="70.5542" y2="78.4657">
   <stop offset="0" style="stop-color:#FEFEFE"/>
   <stop offset="0.0313725" style="stop-color:#FEFEFE"/>
   <stop offset="0.160784" style="stop-color:#676264"/>
   <stop offset="0.270588" style="stop-color:#F6F7F7"/>
   <stop offset="0.419608" style="stop-color:#242521"/>
   <stop offset="0.811765" style="stop-color:#F3F3F3"/>
   <stop offset="0.968627" style="stop-color:#242521"/>
   <stop offset="1" style="stop-color:#242521"/>
  </linearGradient>
  <linearGradient id="id2" gradientUnits="userSpaceOnUse" x1="29.4811" y1="-4.11149" x2="44.2344" y2="77.8273">
   <stop offset="0" style="stop-color:#F6F4F3"/>
   <stop offset="0.478431" style="stop-color:#362D29"/>
   <stop offset="0.780392" style="stop-color:#E3E1E4"/>
   <stop offset="0.968627" style="stop-color:#362D29"/>
   <stop offset="1" style="stop-color:#362D29"/>
  </linearGradient>
  <linearGradient id="id3" gradientUnits="userSpaceOnUse" x1="56.17" y1="73.3939" x2="17.5448" y2="0.322611">
   <stop offset="0" style="stop-color:#FEFEFE"/>
   <stop offset="0.0392157" style="stop-color:#FEFEFE"/>
   <stop offset="0.458824" style="stop-color:#362D29"/>
   <stop offset="0.619608" style="stop-color:#E3E1E4"/>
   <stop offset="0.980392" style="stop-color:#242521"/>
   <stop offset="1" style="stop-color:#242521"/>
  </linearGradient>
  <linearGradient id="id4" gradientUnits="userSpaceOnUse" x1="16.6195" y1="8.04865" x2="17.1399" y2="9.47795">
   <stop offset="0" style="stop-color:#FEFEFE"/>
   <stop offset="0.0784314" style="stop-color:#FEFEFE"/>
   <stop offset="0.988235" style="stop-color:#787478"/>
   <stop offset="1" style="stop-color:#787478"/>
  </linearGradient>
  <linearGradient id="id5" gradientUnits="userSpaceOnUse" xlink:href="#id4" x1="30.123" y1="69.065" x2="30.6438" y2="70.4954">
  </linearGradient>
  <linearGradient id="id6" gradientUnits="userSpaceOnUse" xlink:href="#id4" x1="41.964" y1="1.91184" x2="42.4844" y2="3.34182">
  </linearGradient>
  <linearGradient id="id7" gradientUnits="userSpaceOnUse" xlink:href="#id4" x1="70.0569" y1="41.5512" x2="70.5773" y2="42.9812">
  </linearGradient>
  <linearGradient id="id8" gradientUnits="userSpaceOnUse" xlink:href="#id4" x1="27.942" y1="2.64877" x2="28.4625" y2="4.07807">
  </linearGradient>
  <linearGradient id="id9" gradientUnits="userSpaceOnUse" xlink:href="#id4" x1="69.9278" y1="29.1972" x2="70.4482" y2="30.6272">
  </linearGradient>
  <linearGradient id="id10" gradientUnits="userSpaceOnUse" xlink:href="#id4" x1="7.34224" y1="18.369" x2="7.86266" y2="19.7983">
  </linearGradient>
  <linearGradient id="id11" gradientUnits="userSpaceOnUse" xlink:href="#id4" x1="65.7736" y1="53.1278" x2="66.2937" y2="54.5565">
  </linearGradient>
  <linearGradient id="id12" gradientUnits="userSpaceOnUse" xlink:href="#id4" x1="55.6873" y1="7.60691" x2="56.2074" y2="9.03552">
  </linearGradient>
  <linearGradient id="id13" gradientUnits="userSpaceOnUse" xlink:href="#id4" x1="55.8808" y1="63.9789" x2="56.4013" y2="65.4082">
  </linearGradient>
  <linearGradient id="id14" gradientUnits="userSpaceOnUse" xlink:href="#id4" x1="2.75162" y1="29.6936" x2="3.27171" y2="31.1232">
  </linearGradient>
  <linearGradient id="id15" gradientUnits="userSpaceOnUse" xlink:href="#id4" x1="2.90676" y1="42.03" x2="3.42685" y2="43.4596">
  </linearGradient>
  <linearGradient id="id16" gradientUnits="userSpaceOnUse" xlink:href="#id4" x1="7.82444" y1="54.9113" x2="8.34452" y2="56.3409">
  </linearGradient>
  <linearGradient id="id17" gradientUnits="userSpaceOnUse" xlink:href="#id4" x1="17.4296" y1="64.2518" x2="17.9497" y2="65.6817">
  </linearGradient>
  <linearGradient id="id18" gradientUnits="userSpaceOnUse" xlink:href="#id4" x1="44.4076" y1="68.9555" x2="44.9277" y2="70.3851">
  </linearGradient>
  <linearGradient id="id19" gradientUnits="userSpaceOnUse" xlink:href="#id4" x1="64.373" y1="15.8205" x2="64.893" y2="17.2501">
  </linearGradient>
  <radialGradient id="id20" gradientUnits="objectBoundingBox" cx="24.9998%" cy="16%" r="50%" fx="24.9998%" fy="16%">
   <stop offset="0" style="stop-color:#F6ED7F"/>
   <stop offset="0.219608" style="stop-color:#F6ED7F"/>
   <stop offset="1" style="stop-color:#F4C180"/>
  </radialGradient>
  <radialGradient id="id21" gradientUnits="objectBoundingBox" cx="11.9997%" cy="2.99985%" r="44.0001%" fx="11.9997%" fy="2.99985%">
   <stop offset="0" style="stop-color:#F6E237"/>
   <stop offset="0.180392" style="stop-color:#F6E237"/>
   <stop offset="1" style="stop-color:#EF7F2C"/>
  </radialGradient>
  <radialGradient id="id22" gradientUnits="objectBoundingBox" cx="22.9995%" cy="13.998%" r="39.0036%" fx="22.9995%" fy="13.998%">
   <stop offset="0" style="stop-color:#FEFEFE"/>
   <stop offset="0.0509804" style="stop-color:#FEFEFE"/>
   <stop offset="1" style="stop-color:#242521"/>
  </radialGradient>
  <radialGradient id="id23" gradientUnits="objectBoundingBox" xlink:href="#id22" cx="22.9966%" cy="14.002%" r="39.0016%" fx="22.9966%" fy="14.002%">
  </radialGradient>
  <radialGradient id="id24" gradientUnits="objectBoundingBox" xlink:href="#id22" cx="22.9995%" cy="13.9949%" r="39.0036%" fx="22.9995%" fy="13.9949%">
  </radialGradient>
  <radialGradient id="id25" gradientUnits="objectBoundingBox" xlink:href="#id22" cx="22.9966%" cy="14.0022%" r="39.0004%" fx="22.9966%" fy="14.0022%">
  </radialGradient>
  <radialGradient id="id26" gradientUnits="objectBoundingBox" xlink:href="#id22" cx="22.9995%" cy="14.002%" r="39.0036%" fx="22.9995%" fy="14.002%">
  </radialGradient>
  <radialGradient id="id27" gradientUnits="objectBoundingBox" xlink:href="#id22" cx="22.9966%" cy="13.998%" r="39.0016%" fx="22.9966%" fy="13.998%">
  </radialGradient>
  <radialGradient id="id28" gradientUnits="objectBoundingBox" xlink:href="#id22" cx="22.9989%" cy="14.0022%" r="39.0004%" fx="22.9989%" fy="14.0022%">
  </radialGradient>
  <radialGradient id="id29" gradientUnits="objectBoundingBox" xlink:href="#id22" cx="22.9966%" cy="13.999%" r="39.0016%" fx="22.9966%" fy="13.999%">
  </radialGradient>
  <radialGradient id="id30" gradientUnits="objectBoundingBox" xlink:href="#id22" cx="22.9989%" cy="13.998%" r="39.0004%" fx="22.9989%" fy="13.998%">
  </radialGradient>
  <radialGradient id="id31" gradientUnits="objectBoundingBox" xlink:href="#id22" cx="22.9989%" cy="13.998%" r="39.0004%" fx="22.9989%" fy="13.998%">
  </radialGradient>
  <radialGradient id="id32" gradientUnits="objectBoundingBox" xlink:href="#id22" cx="22.9966%" cy="14.0012%" r="38.9975%" fx="22.9966%" fy="14.0012%">
  </radialGradient>
  <radialGradient id="id33" gradientUnits="objectBoundingBox" xlink:href="#id22" cx="23.0034%" cy="13.9937%" r="39.0028%" fx="23.0034%" fy="13.9937%">
  </radialGradient>
  <radialGradient id="id34" gradientUnits="objectBoundingBox" xlink:href="#id22" cx="22.9966%" cy="13.9937%" r="39.0016%" fx="22.9966%" fy="13.9937%">
  </radialGradient>
  <radialGradient id="id35" gradientUnits="objectBoundingBox" xlink:href="#id22" cx="23.0034%" cy="14.0022%" r="39.0004%" fx="23.0034%" fy="14.0022%">
  </radialGradient>
  <radialGradient id="id36" gradientUnits="objectBoundingBox" xlink:href="#id22" cx="22.9995%" cy="13.9949%" r="39.0036%" fx="22.9995%" fy="13.9949%">
  </radialGradient>
  <radialGradient id="id37" gradientUnits="objectBoundingBox" xlink:href="#id22" cx="22.9995%" cy="14.0012%" r="39.0036%" fx="22.9995%" fy="14.0012%">
  </radialGradient>
 </defs>
 <g id="Layer_x0020_1">
  <metadata id="CorelCorpID_0Corel-Layer"/>
  <path class="fil0" d="M73 43c-3,20 -22,34 -43,30 -20,-3 -33,-22 -29,-43 3,-20 22,-33 42,-29 20,3 34,22 30,42z"/>
  <path class="fil1" d="M72 43c-3,20 -22,33 -41,29 -20,-3 -33,-22 -30,-41 4,-20 23,-33 42,-30 20,4 33,23 29,42z"/>
  <path class="fil2" d="M62 11c-29,2 -47,28 -53,48 -6,-7 -9,-18 -8,-28 4,-20 23,-33 42,-30 7,2 14,5 19,10z"/>
  <path class="fil3" d="M18 10c0,0 0,1 -1,1 -1,-1 -1,-1 -1,-2 0,0 1,-1 1,-1 1,1 1,1 1,2z"/>
  <path class="fil4" d="M18 9c0,1 -1,1 -1,1 -1,0 -1,0 -1,-1 0,-1 1,-1 1,-1 1,0 1,1 1,1z"/>
  <path class="fil5" d="M18 9c0,0 -1,0 -1,0 -1,0 -1,0 -1,0 0,0 0,-1 1,-1 0,0 1,0 1,1z"/>
  <path class="fil3" d="M9 20c0,1 -1,1 -1,1 -1,0 -1,-1 -1,-1 0,-1 0,-1 1,-1 1,0 1,0 1,1z"/>
  <path class="fil6" d="M9 20c0,0 -1,1 -1,1 -1,-1 -1,-1 -1,-2 0,0 0,-1 1,-1 1,1 1,1 1,2z"/>
  <path class="fil7" d="M8 19c1,0 0,0 0,0 -1,0 -1,1 -1,0 0,0 0,0 0,0 1,-1 1,0 1,0z"/>
  <path class="fil3" d="M4 44c0,0 0,1 -1,1 0,-1 -1,-1 -1,-2 0,0 1,-1 2,-1 0,1 1,1 0,2z"/>
  <path class="fil8" d="M4 43c0,1 0,1 -1,1 0,0 -1,0 -1,-1 0,-1 1,-1 1,-1 1,0 1,1 1,1z"/>
  <path class="fil9" d="M4 43c0,0 0,0 -1,0 0,0 -1,0 -1,0 0,0 1,-1 1,-1 0,0 1,0 1,1z"/>
  <path class="fil3" d="M9 57c0,0 0,1 -1,0 0,0 -1,0 -1,-1 0,0 1,-1 2,-1 0,0 1,1 0,2z"/>
  <path class="fil10" d="M9 56c0,1 0,1 -1,1 -1,0 -1,-1 -1,-1 0,-1 1,-1 1,-1 1,0 1,1 1,1z"/>
  <path class="fil11" d="M9 55c0,1 0,0 -1,1 0,0 -1,0 -1,0 0,0 0,-1 1,-1 0,0 1,0 1,0z"/>
  <path class="fil3" d="M19 66c0,0 -1,1 -1,1 -1,0 -1,-1 -1,-1 0,-1 1,-1 1,-1 1,0 1,0 1,1z"/>
  <path class="fil12" d="M19 66c0,0 -1,1 -1,0 -1,0 -1,0 -1,-1 0,0 0,-1 1,-1 1,0 1,1 1,2z"/>
  <path class="fil13" d="M19 65c0,0 -1,0 -1,0 -1,0 -1,1 -1,0 0,0 0,0 0,-1 1,0 1,0 2,1z"/>
  <path class="fil3" d="M32 71c0,0 -1,1 -2,1 0,-1 -1,-1 0,-2 0,0 0,-1 1,-1 0,1 1,1 1,2z"/>
  <path class="fil14" d="M32 70c-1,1 -1,1 -2,1 0,0 -1,0 -1,-1 1,-1 1,-1 2,-1 0,0 1,1 1,1z"/>
  <path class="fil15" d="M31 70c0,0 0,0 -1,0 0,0 0,0 0,0 -1,0 0,-1 0,-1 1,0 1,0 1,1z"/>
  <path class="fil3" d="M46 71c0,0 -1,1 -1,0 -1,0 -1,0 -1,-1 0,0 1,-1 1,-1 1,0 1,1 1,2z"/>
  <path class="fil16" d="M46 70c0,1 -1,1 -1,1 -1,0 -1,0 -1,-1 0,-1 0,-1 1,-1 1,0 1,1 1,1z"/>
  <path class="fil17" d="M46 69c0,1 -1,1 -1,1 -1,0 -1,0 -1,0 0,0 0,-1 0,-1 1,0 1,0 2,0z"/>
  <path class="fil3" d="M57 66c0,0 0,1 -1,1 0,-1 -1,-1 -1,-2 0,0 1,-1 2,-1 0,0 1,1 0,2z"/>
  <path class="fil18" d="M57 65c0,1 0,1 -1,1 -1,0 -1,0 -1,-1 0,-1 1,-1 1,-1 1,0 1,1 1,1z"/>
  <path class="fil19" d="M57 64c0,1 0,1 -1,1 0,0 -1,0 -1,0 0,0 0,-1 1,-1 0,0 1,0 1,0z"/>
  <path class="fil3" d="M67 55c0,0 0,1 -1,1 -1,0 -1,-1 -1,-2 0,0 1,-1 1,0 1,0 1,0 1,1z"/>
  <path class="fil20" d="M67 54c0,1 0,1 -1,1 -1,0 -1,0 -1,-1 0,0 1,-1 1,-1 1,0 1,1 1,1z"/>
  <path class="fil21" d="M67 54c0,0 -1,0 -1,0 0,0 -1,1 -1,0 0,0 0,-1 1,-1 0,0 1,0 1,1z"/>
  <path class="fil3" d="M72 43c0,1 -1,1 -2,1 0,0 -1,-1 -1,-1 1,-1 1,-1 2,-1 0,0 1,1 1,1z"/>
  <path class="fil22" d="M72 43c-1,0 -1,1 -2,1 0,0 -1,-1 -1,-1 0,-1 1,-1 2,-1 0,0 1,0 1,1z"/>
  <path class="fil23" d="M71 42c0,0 0,0 -1,0 0,0 0,1 -1,1 0,-1 1,-1 1,-1 1,0 1,0 1,0z"/>
  <path class="fil3" d="M72 31c-1,0 -1,1 -2,1 0,0 -1,-1 -1,-2 0,0 1,-1 2,0 0,0 1,0 1,1z"/>
  <path class="fil24" d="M71 31c0,0 0,1 -1,0 0,0 -1,0 -1,-1 0,0 1,-1 1,-1 1,0 1,1 1,2z"/>
  <path class="fil25" d="M71 30c0,0 0,0 -1,0 0,0 -1,1 -1,0 0,0 1,0 1,-1 0,0 1,0 1,1z"/>
  <path class="fil3" d="M66 17c0,1 -1,1 -1,1 -1,0 -1,0 -1,-1 0,-1 0,-1 1,-1 1,0 1,1 1,1z"/>
  <path class="fil26" d="M66 17c0,1 -1,1 -1,1 -1,0 -1,-1 -1,-1 0,-1 0,-1 1,-1 1,0 1,1 1,1z"/>
  <path class="fil27" d="M65 16c1,1 0,0 0,1 -1,0 -1,0 -1,0 0,0 0,-1 0,-1 1,0 1,0 1,0z"/>
  <path class="fil3" d="M57 9c0,1 0,1 -1,1 -1,0 -1,-1 -1,-1 0,-1 1,-1 1,-1 1,0 1,1 1,1z"/>
  <path class="fil28" d="M57 9c0,1 -1,1 -1,1 -1,0 -1,-1 -1,-1 0,-1 1,-1 1,-1 1,0 1,0 1,1z"/>
  <path class="fil29" d="M57 8c0,0 -1,0 -1,0 -1,1 -1,1 -1,1 0,-1 0,-1 1,-1 0,0 1,0 1,0z"/>
  <path class="fil3" d="M44 4c-1,0 -1,1 -2,0 0,0 -1,0 -1,-1 1,0 1,-1 2,-1 0,0 1,1 1,2z"/>
  <path class="fil30" d="M43 3c0,1 0,1 -1,1 0,0 -1,-1 -1,-1 0,-1 1,-1 2,-1 0,0 1,1 0,1z"/>
  <path class="fil31" d="M43 2c0,1 0,0 -1,1 0,0 0,0 -1,0 0,0 1,-1 1,-1 0,0 1,0 1,0z"/>
  <path class="fil3" d="M30 4c-1,1 -1,1 -2,1 0,0 -1,0 -1,-1 0,-1 1,-1 2,-1 0,0 1,1 1,1z"/>
  <path class="fil32" d="M29 4c0,1 0,1 -1,1 0,0 -1,-1 -1,-1 0,-1 1,-1 2,-1 0,0 0,0 0,1z"/>
  <path class="fil33" d="M29 3c0,0 0,0 -1,0 0,1 -1,1 -1,1 0,-1 1,-1 1,-1 0,0 1,0 1,0z"/>
  <path class="fil3" d="M4 31c0,1 0,1 -1,1 -1,0 -1,0 -1,-1 0,-1 1,-1 1,-1 1,0 1,1 1,1z"/>
  <path class="fil34" d="M4 31c0,1 0,1 -1,1 -1,0 -1,-1 -1,-1 0,-1 1,-1 1,-1 1,0 1,0 1,1z"/>
  <path class="fil35" d="M4 30c0,1 -1,0 -1,0 0,1 -1,1 -1,1 0,-1 0,-1 1,-1 0,0 1,0 1,0z"/>
  <path class="fil36" d="M56 11c-4,1 -9,3 -13,5l-10 16 17 -2 -11 21 5 0 -11 12 -3 -12 5 0 5 -15 -16 3 5 -12c-8,8 -15,18 -18,28 4,7 11,12 20,13 2,0 4,1 6,1 15,0 28,-11 31,-27l0 0c0,-1 1,-3 1,-5 0,-10 -5,-20 -13,-26l0 0z"/>
  <path class="fil3" d="M68 42l0 0c-3,16 -16,27 -31,27 -2,0 -4,-1 -6,-1 -15,-3 -26,-16 -26,-31 0,-2 0,-4 1,-6 2,-15 16,-26 31,-26 2,0 4,0 5,1 16,2 27,16 27,31 0,2 -1,4 -1,5l0 0 0 0c1,-1 1,-3 1,-5 0,-15 -11,-29 -27,-32 -1,0 -3,0 -5,0 -15,0 -29,11 -32,26 0,2 0,4 0,6 0,15 11,29 26,31 2,1 4,1 6,1 15,0 29,-11 31,-27l0 0 0 0z"/>
  <polygon class="fil3" points="35,13 24,39 40,36 35,51 30,51 33,63 44,51 39,51 50,30 33,32 46,13 35,13 "/>
  <polygon class="fil3" points="35,13 24,39 40,36 35,51 30,51 33,63 44,51 39,51 50,30 33,32 46,13 35,13 "/>
  <path class="fil37" d="M37 5c-15,0 -29,11 -31,26 -1,2 -1,4 -1,6 0,6 2,12 6,18 3,-10 10,-20 18,-28l6 -14 11 0 -3 3c4,-2 9,-4 13,-5 -4,-2 -9,-5 -14,-5 -1,-1 -3,-1 -5,-1l0 0z"/>
  <path class="fil38" d="M37 5c-15,0 -29,11 -32,26 -1,9 1,17 5,24 0,0 0,0 1,0 -4,-6 -6,-12 -6,-18 0,-2 0,-4 1,-6 2,-15 16,-26 31,-26 2,0 4,0 5,1 5,0 10,3 14,5 0,0 0,0 0,0 -4,-3 -8,-5 -14,-6 -1,0 -3,0 -5,0l0 0z"/>
  <path class="fil38" d="M46 13l-11 0 -6 14c4,-4 9,-8 14,-11l3 -3 0 0z"/>
  <path class="fil39" d="M31 68c-17,-3 -28,-19 -25,-37 3,-17 19,-28 36,-25 18,3 29,19 26,36 -3,18 -19,29 -37,26zm11 -63c-17,-3 -34,9 -37,26 -3,18 9,34 26,38 18,3 34,-9 38,-27 3,-17 -9,-34 -27,-37z"/>
 </g>
</svg>
