<?xml version="1.0" encoding="UTF-8"?>
<!DOCTYPE svg PUBLIC "-//W3C//DTD SVG 1.1//EN" "http://www.w3.org/Graphics/SVG/1.1/DTD/svg11.dtd">
<!-- Creator: CorelDRAW X6 -->
<svg xmlns="http://www.w3.org/2000/svg" xml:space="preserve" width="25" height="25" version="1.1" style="shape-rendering:geometricPrecision; text-rendering:geometricPrecision; image-rendering:optimizeQuality; fill-rule:evenodd; clip-rule:evenodd"
viewBox="0 0 213 213"
 xmlns:xlink="http://www.w3.org/1999/xlink">
 <defs>
  <style type="text/css">
   <![CDATA[
    .fil3 {fill:#242521;fill-rule:nonzero}
    .fil38 {fill:#7A787A;fill-rule:nonzero}
    .fil2 {fill:url(#id0)}
    .fil1 {fill:url(#id1)}
    .fil0 {fill:url(#id2)}
    .fil39 {fill:url(#id3)}
    .fil21 {fill:url(#id4)}
    .fil11 {fill:url(#id5)}
    .fil5 {fill:url(#id6)}
    .fil13 {fill:url(#id7)}
    .fil33 {fill:url(#id8)}
    .fil15 {fill:url(#id9)}
    .fil31 {fill:url(#id10)}
    .fil29 {fill:url(#id11)}
    .fil27 {fill:url(#id12)}
    .fil23 {fill:url(#id13)}
    .fil7 {fill:url(#id14)}
    .fil25 {fill:url(#id15)}
    .fil35 {fill:url(#id16)}
    .fil19 {fill:url(#id17)}
    .fil9 {fill:url(#id18)}
    .fil17 {fill:url(#id19)}
    .fil37 {fill:url(#id20)}
    .fil36 {fill:url(#id21)}
    .fil22 {fill:url(#id22)}
    .fil34 {fill:url(#id23)}
    .fil6 {fill:url(#id24)}
    .fil12 {fill:url(#id25)}
    .fil32 {fill:url(#id26)}
    .fil14 {fill:url(#id27)}
    .fil30 {fill:url(#id28)}
    .fil16 {fill:url(#id29)}
    .fil28 {fill:url(#id30)}
    .fil18 {fill:url(#id31)}
    .fil24 {fill:url(#id32)}
    .fil8 {fill:url(#id33)}
    .fil26 {fill:url(#id34)}
    .fil10 {fill:url(#id35)}
    .fil20 {fill:url(#id36)}
    .fil4 {fill:url(#id37)}
   ]]>
  </style>
  <linearGradient id="id0" gradientUnits="userSpaceOnUse" x1="-0.81971" y1="-6.12748" x2="177.69" y2="172.366">
   <stop offset="0" style="stop-color:#FEFEFE"/>
   <stop offset="0.0313725" style="stop-color:#FEFEFE"/>
   <stop offset="0.2" style="stop-color:#8A8789"/>
   <stop offset="0.4" style="stop-color:#F6F7F7"/>
   <stop offset="0.619608" style="stop-color:#6D6769"/>
   <stop offset="1" style="stop-color:#F3F3F3"/>
  </linearGradient>
  <linearGradient id="id1" gradientUnits="userSpaceOnUse" x1="9.1488" y1="-13.746" x2="204.223" y2="227.128">
   <stop offset="0" style="stop-color:#FEFEFE"/>
   <stop offset="0.0313725" style="stop-color:#FEFEFE"/>
   <stop offset="0.160784" style="stop-color:#676264"/>
   <stop offset="0.270588" style="stop-color:#F6F7F7"/>
   <stop offset="0.419608" style="stop-color:#242521"/>
   <stop offset="0.811765" style="stop-color:#F3F3F3"/>
   <stop offset="0.968627" style="stop-color:#242521"/>
   <stop offset="1" style="stop-color:#242521"/>
  </linearGradient>
  <linearGradient id="id2" gradientUnits="userSpaceOnUse" x1="85.3357" y1="-11.9007" x2="128.041" y2="225.279">
   <stop offset="0" style="stop-color:#F6F4F3"/>
   <stop offset="0.478431" style="stop-color:#362D29"/>
   <stop offset="0.780392" style="stop-color:#E3E1E4"/>
   <stop offset="0.968627" style="stop-color:#362D29"/>
   <stop offset="1" style="stop-color:#362D29"/>
  </linearGradient>
  <linearGradient id="id3" gradientUnits="userSpaceOnUse" x1="162.591" y1="212.447" x2="50.7853" y2="0.933338">
   <stop offset="0" style="stop-color:#FEFEFE"/>
   <stop offset="0.0392157" style="stop-color:#FEFEFE"/>
   <stop offset="0.458824" style="stop-color:#362D29"/>
   <stop offset="0.619608" style="stop-color:#E3E1E4"/>
   <stop offset="0.980392" style="stop-color:#242521"/>
   <stop offset="1" style="stop-color:#242521"/>
  </linearGradient>
  <linearGradient id="id4" gradientUnits="userSpaceOnUse" x1="190.387" y1="153.784" x2="191.893" y2="157.92">
   <stop offset="0" style="stop-color:#FEFEFE"/>
   <stop offset="0.0784314" style="stop-color:#FEFEFE"/>
   <stop offset="0.988235" style="stop-color:#787478"/>
   <stop offset="1" style="stop-color:#787478"/>
  </linearGradient>
  <linearGradient id="id5" gradientUnits="userSpaceOnUse" xlink:href="#id4" x1="22.6467" y1="158.947" x2="24.1532" y2="163.085">
  </linearGradient>
  <linearGradient id="id6" gradientUnits="userSpaceOnUse" xlink:href="#id4" x1="48.1064" y1="23.2977" x2="49.6128" y2="27.435">
  </linearGradient>
  <linearGradient id="id7" gradientUnits="userSpaceOnUse" xlink:href="#id4" x1="50.4519" y1="185.984" x2="51.9583" y2="190.123">
  </linearGradient>
  <linearGradient id="id8" gradientUnits="userSpaceOnUse" xlink:href="#id4" x1="80.8809" y1="7.66717" x2="82.3873" y2="11.8044">
  </linearGradient>
  <linearGradient id="id9" gradientUnits="userSpaceOnUse" xlink:href="#id4" x1="87.192" y1="199.917" x2="88.6984" y2="204.056">
  </linearGradient>
  <linearGradient id="id10" gradientUnits="userSpaceOnUse" xlink:href="#id4" x1="121.467" y1="5.53354" x2="122.975" y2="9.67377">
  </linearGradient>
  <linearGradient id="id11" gradientUnits="userSpaceOnUse" xlink:href="#id4" x1="161.192" y1="22.0181" x2="162.699" y2="26.1553">
  </linearGradient>
  <linearGradient id="id12" gradientUnits="userSpaceOnUse" xlink:href="#id4" x1="186.333" y1="45.7946" x2="187.839" y2="49.9319">
  </linearGradient>
  <linearGradient id="id13" gradientUnits="userSpaceOnUse" xlink:href="#id4" x1="202.785" y1="120.274" x2="204.292" y2="124.414">
  </linearGradient>
  <linearGradient id="id14" gradientUnits="userSpaceOnUse" xlink:href="#id4" x1="21.2514" y1="53.1715" x2="22.7569" y2="57.3078">
  </linearGradient>
  <linearGradient id="id15" gradientUnits="userSpaceOnUse" xlink:href="#id4" x1="202.412" y1="84.514" x2="203.92" y2="88.6542">
  </linearGradient>
  <linearGradient id="id16" gradientUnits="userSpaceOnUse" xlink:href="#id4" x1="7.96488" y1="85.9515" x2="9.47132" y2="90.0897">
  </linearGradient>
  <linearGradient id="id17" gradientUnits="userSpaceOnUse" xlink:href="#id4" x1="161.752" y1="185.194" x2="163.258" y2="189.331">
  </linearGradient>
  <linearGradient id="id18" gradientUnits="userSpaceOnUse" xlink:href="#id4" x1="8.41146" y1="121.66" x2="9.91691" y2="125.799">
  </linearGradient>
  <linearGradient id="id19" gradientUnits="userSpaceOnUse" xlink:href="#id4" x1="128.541" y1="199.599" x2="130.047" y2="203.738">
  </linearGradient>
  <radialGradient id="id20" gradientUnits="objectBoundingBox" cx="23.9999%" cy="16%" r="50.0002%" fx="23.9999%" fy="16%">
   <stop offset="0" style="stop-color:#F6ED7F"/>
   <stop offset="0.211765" style="stop-color:#F6ED7F"/>
   <stop offset="1" style="stop-color:#F4C180"/>
  </radialGradient>
  <radialGradient id="id21" gradientUnits="objectBoundingBox" cx="12%" cy="2.99985%" r="44%" fx="12%" fy="2.99985%">
   <stop offset="0" style="stop-color:#F6E237"/>
   <stop offset="0.180392" style="stop-color:#F6E237"/>
   <stop offset="1" style="stop-color:#EF7F2C"/>
  </radialGradient>
  <radialGradient id="id22" gradientUnits="objectBoundingBox" cx="22.9966%" cy="13.9937%" r="39.0016%" fx="22.9966%" fy="13.9937%">
   <stop offset="0" style="stop-color:#FEFEFE"/>
   <stop offset="0.0509804" style="stop-color:#FEFEFE"/>
   <stop offset="1" style="stop-color:#242521"/>
  </radialGradient>
  <radialGradient id="id23" gradientUnits="objectBoundingBox" xlink:href="#id22" cx="22.9995%" cy="14.0022%" r="39.0036%" fx="22.9995%" fy="14.0022%">
  </radialGradient>
  <radialGradient id="id24" gradientUnits="objectBoundingBox" xlink:href="#id22" cx="23.0034%" cy="13.998%" r="39.0016%" fx="23.0034%" fy="13.998%">
  </radialGradient>
  <radialGradient id="id25" gradientUnits="objectBoundingBox" xlink:href="#id22" cx="23.0012%" cy="13.9937%" r="38.9991%" fx="23.0012%" fy="13.9937%">
  </radialGradient>
  <radialGradient id="id26" gradientUnits="objectBoundingBox" xlink:href="#id22" cx="22.9972%" cy="14.002%" r="38.9975%" fx="22.9972%" fy="14.002%">
  </radialGradient>
  <radialGradient id="id27" gradientUnits="objectBoundingBox" xlink:href="#id22" cx="23.0034%" cy="13.999%" r="39.0045%" fx="23.0034%" fy="13.999%">
  </radialGradient>
  <radialGradient id="id28" gradientUnits="objectBoundingBox" xlink:href="#id22" cx="23.0034%" cy="14.0022%" r="39.0004%" fx="23.0034%" fy="14.0022%">
  </radialGradient>
  <radialGradient id="id29" gradientUnits="objectBoundingBox" xlink:href="#id22" cx="22.9944%" cy="13.9949%" r="39.0004%" fx="22.9944%" fy="13.9949%">
  </radialGradient>
  <radialGradient id="id30" gradientUnits="objectBoundingBox" xlink:href="#id22" cx="22.9995%" cy="14.0022%" r="39.0036%" fx="22.9995%" fy="14.0022%">
  </radialGradient>
  <radialGradient id="id31" gradientUnits="objectBoundingBox" xlink:href="#id22" cx="22.9972%" cy="14.002%" r="38.9975%" fx="22.9972%" fy="14.002%">
  </radialGradient>
  <radialGradient id="id32" gradientUnits="objectBoundingBox" xlink:href="#id22" cx="22.9944%" cy="13.998%" r="39.0016%" fx="22.9944%" fy="13.998%">
  </radialGradient>
  <radialGradient id="id33" gradientUnits="objectBoundingBox" xlink:href="#id22" cx="22.9944%" cy="14.0012%" r="38.9975%" fx="22.9944%" fy="14.0012%">
  </radialGradient>
  <radialGradient id="id34" gradientUnits="objectBoundingBox" xlink:href="#id22" cx="22.9995%" cy="13.998%" r="39.0036%" fx="22.9995%" fy="13.998%">
  </radialGradient>
  <radialGradient id="id35" gradientUnits="objectBoundingBox" xlink:href="#id22" cx="22.9966%" cy="13.998%" r="39.0016%" fx="22.9966%" fy="13.998%">
  </radialGradient>
  <radialGradient id="id36" gradientUnits="objectBoundingBox" xlink:href="#id22" cx="22.9966%" cy="13.9949%" r="39.0004%" fx="22.9966%" fy="13.9949%">
  </radialGradient>
  <radialGradient id="id37" gradientUnits="objectBoundingBox" xlink:href="#id22" cx="22.9989%" cy="14.0012%" r="38.9975%" fx="22.9989%" fy="14.0012%">
  </radialGradient>
 </defs>
 <g id="Layer_x0020_1">
  <metadata id="CorelCorpID_0Corel-Layer"/>
  <path class="fil0" d="M212 125c-10,58 -66,97 -124,87 -58,-10 -97,-66 -86,-124 10,-58 65,-97 123,-86 58,10 97,65 87,123z"/>
  <path class="fil1" d="M209 125c-10,56 -64,94 -120,84 -57,-10 -95,-64 -85,-120 10,-57 64,-95 121,-85 56,10 94,64 84,121z"/>
  <path class="fil2" d="M178 31c-64,7 -135,73 -152,141 -18,-23 -27,-53 -22,-83 10,-57 64,-95 121,-85 21,4 39,13 53,27z"/>
  <path class="fil3" d="M53 28c-1,2 -2,3 -4,3 -2,-1 -3,-2 -3,-4 1,-2 2,-3 4,-3 2,1 3,2 3,4z"/>
  <path class="fil4" d="M52 27c0,2 -2,3 -3,3 -2,-1 -3,-2 -3,-4 0,-2 2,-3 4,-2 1,0 3,1 2,3z"/>
  <path class="fil5" d="M51 25c1,1 -1,0 -2,0 -2,1 -2,2 -3,1 0,-1 1,-2 2,-2 2,-1 3,0 3,1z"/>
  <path class="fil3" d="M26 58c0,2 -2,3 -4,2 -2,0 -3,-1 -2,-3 0,-2 2,-3 3,-3 2,1 3,2 3,4z"/>
  <path class="fil6" d="M25 57c0,2 -1,3 -3,3 -2,-1 -3,-2 -3,-4 1,-2 2,-3 4,-3 2,1 3,2 2,4z"/>
  <path class="fil7" d="M24 55c1,1 -1,0 -2,0 -1,1 -2,2 -2,1 -1,-1 0,-2 1,-2 2,-1 3,0 3,1z"/>
  <path class="fil3" d="M13 126c0,2 -2,3 -4,3 -1,0 -3,-2 -2,-4 0,-1 2,-3 3,-2 2,0 3,2 3,3z"/>
  <path class="fil8" d="M13 126c-1,1 -2,2 -4,2 -2,0 -3,-2 -3,-4 1,-1 2,-2 4,-2 2,0 3,2 3,4z"/>
  <path class="fil9" d="M12 123c0,1 -2,0 -3,1 -1,0 -2,2 -2,1 -1,-1 0,-2 2,-3 1,0 2,0 3,1z"/>
  <path class="fil3" d="M27 164c0,1 -2,3 -3,2 -2,0 -3,-2 -3,-3 0,-2 2,-3 4,-3 1,0 3,2 2,4z"/>
  <path class="fil10" d="M27 163c0,2 -2,3 -4,2 -2,0 -3,-2 -2,-3 0,-2 2,-3 3,-3 2,0 3,2 3,4z"/>
  <path class="fil11" d="M26 160c0,1 -1,1 -3,1 -1,1 -2,2 -2,1 0,-1 0,-2 2,-2 1,-1 2,-1 3,0z"/>
  <path class="fil3" d="M55 191c0,1 -2,3 -4,2 -1,0 -2,-2 -2,-3 0,-2 2,-3 3,-3 2,0 3,2 3,4z"/>
  <path class="fil12" d="M55 190c-1,2 -2,3 -4,2 -2,0 -3,-2 -3,-3 1,-2 2,-3 4,-3 2,1 3,2 3,4z"/>
  <path class="fil13" d="M54 187c0,1 -2,1 -3,1 -1,1 -2,2 -2,1 -1,-1 0,-2 2,-2 1,-1 2,0 3,0z"/>
  <path class="fil3" d="M92 205c-1,1 -2,3 -4,2 -2,0 -3,-2 -2,-3 0,-2 1,-3 3,-3 2,0 3,2 3,4z"/>
  <path class="fil14" d="M91 204c0,2 -2,3 -3,2 -2,0 -3,-2 -3,-3 0,-2 2,-3 4,-3 2,0 3,2 2,4z"/>
  <path class="fil15" d="M90 201c1,1 -1,1 -2,1 -1,1 -2,2 -2,1 -1,-1 0,-2 1,-3 2,0 3,0 3,1z"/>
  <path class="fil3" d="M133 204c0,2 -2,3 -4,3 -1,0 -2,-2 -2,-4 0,-1 2,-3 4,-2 1,0 2,2 2,3z"/>
  <path class="fil16" d="M133 203c-1,2 -2,3 -4,3 -2,0 -3,-2 -2,-4 0,-1 1,-2 3,-2 2,0 3,2 3,3z"/>
  <path class="fil17" d="M132 201c0,1 -1,0 -3,1 -1,0 -2,2 -2,1 0,-1 0,-2 2,-3 1,0 2,0 3,1z"/>
  <path class="fil3" d="M166 190c0,2 -2,3 -3,2 -2,0 -3,-1 -3,-3 0,-2 2,-3 4,-3 1,1 3,2 2,4z"/>
  <path class="fil18" d="M166 189c0,2 -2,3 -4,3 -1,-1 -3,-2 -2,-4 0,-2 2,-3 3,-3 2,1 3,2 3,4z"/>
  <path class="fil19" d="M165 187c0,1 -1,0 -3,0 -1,1 -2,2 -2,1 0,-1 1,-2 2,-2 1,-1 3,0 3,1z"/>
  <path class="fil3" d="M195 159c0,1 -2,2 -4,2 -1,0 -3,-2 -2,-4 0,-1 2,-2 3,-2 2,0 3,2 3,4z"/>
  <path class="fil20" d="M195 158c-1,1 -2,3 -4,2 -2,0 -3,-2 -3,-3 1,-2 2,-3 4,-3 2,0 3,2 3,4z"/>
  <path class="fil21" d="M194 155c0,1 -2,0 -3,1 -1,0 -2,2 -2,1 -1,-1 0,-2 2,-3 1,0 2,0 3,1z"/>
  <path class="fil3" d="M207 125c0,2 -2,3 -3,3 -2,-1 -3,-2 -3,-4 0,-2 2,-3 4,-3 2,1 3,2 2,4z"/>
  <path class="fil22" d="M207 124c0,2 -2,3 -4,3 -1,-1 -3,-2 -2,-4 0,-2 2,-3 3,-2 2,0 3,1 3,3z"/>
  <path class="fil23" d="M206 122c0,1 -1,0 -3,0 -1,1 -2,2 -2,1 0,-1 1,-2 2,-2 1,-1 3,0 3,1z"/>
  <path class="fil3" d="M207 89c0,2 -2,3 -4,3 -1,0 -3,-2 -2,-4 0,-2 2,-3 3,-2 2,0 3,2 3,3z"/>
  <path class="fil24" d="M207 88c-1,2 -2,3 -4,3 -2,0 -3,-2 -3,-4 1,-1 2,-3 4,-2 2,0 3,2 3,3z"/>
  <path class="fil25" d="M206 86c0,1 -2,0 -3,1 -1,0 -2,2 -2,1 -1,-1 0,-2 2,-3 1,0 2,0 3,1z"/>
  <path class="fil3" d="M191 51c0,1 -2,2 -4,2 -1,0 -3,-2 -2,-4 0,-1 2,-2 3,-2 2,0 3,2 3,4z"/>
  <path class="fil26" d="M191 50c-1,1 -2,3 -4,2 -2,0 -3,-2 -3,-3 1,-2 2,-3 4,-3 2,0 3,2 3,4z"/>
  <path class="fil27" d="M189 47c1,1 -1,0 -2,1 -1,0 -2,2 -2,1 -1,-1 0,-2 2,-3 1,0 2,0 2,1z"/>
  <path class="fil3" d="M166 27c-1,1 -2,3 -4,2 -2,0 -3,-2 -2,-3 0,-2 1,-3 3,-3 2,0 3,2 3,4z"/>
  <path class="fil28" d="M165 26c0,2 -2,3 -3,2 -2,0 -3,-1 -3,-3 0,-2 2,-3 4,-3 2,1 3,2 2,4z"/>
  <path class="fil29" d="M164 23c1,1 -1,1 -2,1 -1,1 -2,2 -2,1 -1,-1 0,-2 1,-2 2,-1 3,0 3,0z"/>
  <path class="fil3" d="M126 10c0,2 -2,3 -4,3 -1,0 -2,-2 -2,-4 0,-2 2,-3 3,-2 2,0 3,2 3,3z"/>
  <path class="fil30" d="M126 9c-1,2 -2,3 -4,3 -2,0 -3,-2 -3,-4 1,-1 2,-3 4,-2 2,0 3,2 3,3z"/>
  <path class="fil31" d="M125 7c0,1 -2,0 -3,1 -1,0 -2,2 -2,1 -1,-1 0,-2 2,-3 1,0 2,0 3,1z"/>
  <path class="fil3" d="M85 12c0,2 -1,3 -3,3 -2,0 -3,-2 -3,-4 1,-1 2,-3 4,-2 2,0 3,2 2,3z"/>
  <path class="fil32" d="M85 12c0,1 -2,2 -4,2 -1,0 -2,-2 -2,-4 0,-1 2,-2 4,-2 1,0 2,2 2,4z"/>
  <path class="fil33" d="M84 9c0,1 -1,0 -2,1 -2,0 -2,2 -3,1 0,-1 1,-2 2,-3 1,0 3,0 3,1z"/>
  <path class="fil3" d="M13 91c-1,1 -2,3 -4,2 -2,0 -3,-2 -3,-3 1,-2 2,-3 4,-3 2,0 3,2 3,4z"/>
  <path class="fil34" d="M12 90c0,2 -2,3 -3,2 -2,0 -3,-2 -3,-3 0,-2 2,-3 4,-3 1,0 2,2 2,4z"/>
  <path class="fil35" d="M11 87c0,1 -1,1 -2,1 -2,1 -2,2 -3,1 0,-1 1,-2 2,-2 1,-1 3,-1 3,0z"/>
  <path class="fil36" d="M162 33c-17,3 -33,11 -49,21 13,1 23,7 29,16 0,0 0,1 1,1 0,0 0,0 0,1 2,3 3,6 3,10 0,0 0,1 1,1 0,0 0,1 0,1 0,2 0,4 0,7 0,12 -3,22 -2,25 2,2 3,5 4,7 0,1 0,1 0,2 0,0 0,0 0,1 0,0 0,1 0,1 0,3 -1,5 -3,7 0,1 0,1 -1,1 0,0 0,1 -1,1 -1,1 -4,2 -7,2 -1,1 -2,1 -3,1 -1,0 -2,0 -3,-1 0,0 0,0 0,0 0,0 0,0 0,1 -4,0 -1,7 -3,14l1 1c0,1 -1,3 -3,3l0 0c0,0 0,0 0,0 -1,0 -1,0 -2,0 0,1 -1,1 -2,2 -1,0 -1,0 -1,0 -1,0 -1,-1 -2,-1l0 1c0,1 -1,2 -2,2 0,0 0,0 -1,0 0,0 0,0 0,0 -1,0 -1,0 -2,-1 0,1 -1,2 -2,2l0 0c-2,0 -2,0 -3,-1 0,0 -1,1 -2,1l0 0c-1,0 -2,0 -3,-1 0,0 -1,1 -2,1l0 0c-2,0 -3,-1 -3,-2l0 -1c0,1 -1,1 -2,2l0 0c-2,0 -3,-2 -3,-3l0 0c0,0 -1,1 -2,1l0 0c-1,0 -3,-1 -3,-3l0 -1 0 0c0,0 0,0 0,0 -1,0 -1,0 -1,0 -2,0 -3,-1 -3,-2l1 -2c-1,-7 2,-14 -3,-14 0,0 0,0 0,0 -5,0 -9,-1 -12,-3 0,0 -1,0 -1,-1 0,0 0,0 -1,0 -2,-2 -3,-6 -3,-9 0,0 0,-1 0,-1 0,-1 0,-1 0,-1 0,-1 0,-1 0,-2 1,-2 2,-4 3,-7 1,-2 0,-9 -1,-18 -9,12 -18,24 -25,37 1,-1 1,-1 2,-1 0,0 1,0 1,0 2,0 4,1 6,1l11 -7 0 0c0,4 1,7 3,10l1 0 -10 6c-1,3 0,8 -5,11 -1,1 -3,2 -5,2 0,0 -1,0 -1,0 -2,0 -4,-1 -5,-2 -1,-2 0,-4 1,-6 -2,0 -4,-1 -5,-2 -3,5 -5,9 -7,14 14,20 35,35 61,39 5,1 10,2 16,2 44,0 82,-32 90,-76l0 0c1,-6 2,-11 2,-16 0,-30 -14,-57 -37,-74l0 0zm-39 74l-1 0c0,0 -1,0 -1,0 -4,1 -6,3 -8,6 0,0 0,0 -1,1 0,0 0,0 0,1 -1,1 -1,3 -1,5 0,7 5,13 11,13 1,0 1,0 1,0 4,0 7,-2 9,-5 0,-1 0,-1 1,-1 0,-1 0,-1 0,-1 1,-2 1,-4 1,-6 0,-1 0,-3 -1,-4 0,-1 0,-2 0,-2 -1,-1 -1,-1 -2,-2 -1,-2 -4,-4 -7,-5 0,0 -1,0 -1,0l0 0zm-33 0c-1,0 -1,0 -1,0 -1,0 -2,1 -2,1 -3,0 -4,2 -6,3 0,1 -1,2 -1,2 -1,2 -2,5 -2,7 0,2 1,4 2,6 0,0 0,1 0,1 0,0 0,1 0,1 3,3 6,5 10,5 0,0 0,0 0,0 6,0 11,-5 11,-12 0,-2 0,-4 -1,-6 0,0 0,-1 0,-1 -1,0 -1,-1 -1,-1 -2,-3 -5,-5 -9,-6l0 0zm16 18c0,0 -4,9 -5,13 -1,4 1,7 2,7 1,0 2,-1 3,-4 1,3 2,4 3,4 1,0 3,-1 3,-4 0,-4 -4,-12 -6,-16l0 0z"/>
  <path class="fil3" d="M198 123l-1 0c-8,44 -46,76 -90,76 -6,0 -11,-1 -16,-2 -45,-8 -76,-46 -76,-90 0,-6 0,-11 1,-16 8,-45 47,-76 91,-76 5,0 10,0 16,1 44,8 76,47 76,91 0,5 -1,10 -2,16l1 0 0 0c1,-6 1,-11 1,-16 0,-45 -31,-84 -76,-92 -6,-1 -11,-1 -16,-1 -45,0 -84,32 -92,77 -1,5 -1,10 -1,16 0,44 32,83 77,91 5,1 10,1 16,1 44,0 83,-31 91,-76l0 0 0 0z"/>
  <path class="fil3" d="M63 125l0 0 -11 7c-2,0 -4,-1 -7,-1 -1,0 -2,1 -3,1 -5,3 -7,8 -5,12 1,1 3,2 5,2 -1,2 -2,4 -1,6 1,2 3,3 6,2 2,0 4,-1 5,-2 5,-3 4,-8 5,-11l10 -6 -1 0c-2,-3 -3,-6 -3,-10l0 0z"/>
  <path class="fil3" d="M161 72c2,1 4,2 7,2 1,0 2,-1 3,-1 4,-3 6,-8 4,-11 0,-2 -3,-2 -5,-3 1,-2 2,-4 1,-6 -1,-2 -3,-2 -6,-2 -2,0 -3,1 -5,2 -4,2 -4,7 -4,10l-10 6c1,3 3,7 3,11l12 -8z"/>
  <path class="fil3" d="M173 134c-2,-1 -3,-1 -5,-1 -2,0 -4,1 -6,2l-10 -7c0,2 -1,5 -3,8l9 6 0 1c2,3 1,8 5,11 3,1 5,2 8,2 1,0 3,-1 3,-3 1,-1 0,-4 -1,-6 1,0 1,0 2,0 1,0 3,0 3,-2 2,-3 0,-8 -5,-11z"/>
  <path class="fil3" d="M42 75c2,2 4,2 6,1 1,0 1,0 2,0 1,-1 2,-1 3,-1 0,0 0,0 1,0 0,0 1,0 1,0l11 7c0,-3 1,-6 2,-9l-10 -7c-1,-3 -1,-8 -6,-10 -2,-2 -5,-3 -7,-2 -2,0 -3,1 -4,2 -1,1 0,4 1,6 -1,0 -1,0 -2,0 -1,0 -3,1 -3,2 -2,3 1,8 5,11l0 0z"/>
  <path class="fil3" d="M133 127c-1,0 -1,0 -1,1 -2,3 -6,5 -10,5 -6,0 -11,-6 -11,-13 0,-2 0,-4 1,-5 0,-1 0,-1 0,-1 1,-1 1,-1 1,-1 2,-3 4,-5 8,-6 0,0 1,0 1,0l1 0c0,0 1,0 1,0 3,1 6,3 7,5 1,1 1,1 2,2 0,0 0,1 0,2 1,1 1,3 1,4 0,2 0,4 -1,6 0,0 0,0 0,1l0 0zm-27 14c-2,8 -7,3 -5,-3 1,-4 5,-13 5,-13 2,4 6,12 6,16 0,5 -4,7 -6,0l0 0zm-16 -8c-4,0 -7,-2 -10,-5 0,0 0,-1 0,-1 0,0 0,-1 0,-1 -1,-2 -2,-4 -2,-6 0,-2 1,-5 2,-7 0,0 1,-1 1,-2 2,-1 3,-3 6,-3 0,0 1,-1 2,-1 0,0 0,0 1,0 4,1 7,3 9,6 0,0 0,1 1,1 0,0 0,1 0,1 1,2 1,4 1,6 0,7 -5,12 -11,12l0 0zm59 -7c0,-1 0,-1 0,-1 0,-1 0,-1 0,-2 -1,-2 -2,-5 -4,-7 -1,-3 2,-13 2,-25 0,-3 0,-5 0,-7 0,0 0,-1 0,-1 -1,0 -1,-1 -1,-1 0,-4 -1,-7 -3,-10 0,-1 0,-1 0,-1 -1,0 -1,-1 -1,-1 -6,-10 -18,-16 -33,-17 -1,0 -2,0 -2,0 -3,0 -6,0 -9,1 -12,2 -22,8 -26,19 -1,0 -1,0 -1,1 0,0 0,0 0,1 -1,2 -2,5 -2,9 0,0 0,0 0,1 -1,0 -1,1 -1,1 0,1 0,3 0,4 0,12 3,20 1,23 -1,3 -2,5 -3,7 0,1 0,1 0,2 0,0 0,0 0,1 0,0 0,1 0,1 0,3 1,7 3,9 1,0 1,0 1,0 0,1 1,1 1,1 3,2 7,3 12,3 5,0 2,7 3,14l-1 2c0,1 1,2 3,2 0,0 1,0 1,0l0 0 0 1c0,2 2,3 3,3l0 0c1,0 2,-1 2,-1l0 0c0,1 1,3 3,3l0 0c1,-1 2,-1 2,-2l0 1c0,1 1,2 3,2l0 0c1,0 2,-1 2,-1 1,1 2,1 3,1l0 0c1,0 2,-1 2,-1 1,1 1,1 3,1l0 0c1,0 2,-1 2,-2 1,1 1,1 2,1 0,0 1,0 1,0 1,0 2,-1 2,-2l0 -1c1,0 1,1 2,1 0,0 0,0 1,0 1,-1 2,-1 2,-2 1,0 1,0 2,0l0 0c2,0 3,-2 3,-3l-1 -1c2,-7 -1,-14 3,-14 0,-1 0,-1 0,-1 3,1 5,1 6,0 3,0 6,-1 7,-2 1,0 1,-1 1,-1 1,0 1,0 1,-1 2,-2 3,-4 3,-7 0,0 0,-1 0,-1l0 0z"/>
  <path class="fil37" d="M107 15c-44,0 -83,31 -91,76 -1,5 -1,10 -1,16 0,18 5,36 15,51 2,-5 4,-9 7,-14 0,0 0,0 0,0 -2,-4 0,-9 5,-12 0,0 1,0 1,0 7,-13 16,-25 25,-37 0,-1 0,-3 0,-5 0,-1 0,-3 0,-4 0,0 0,-1 1,-1 0,-1 0,-1 0,-1 0,-4 1,-7 2,-9 0,-1 0,-1 0,-1 0,-1 0,-1 1,-1 4,-11 14,-17 26,-19 2,-1 5,-1 7,-1 1,0 1,0 2,0 0,0 1,0 2,0 1,0 3,1 4,1 16,-10 32,-18 49,-21 -11,-8 -25,-14 -39,-17 -6,-1 -11,-1 -16,-1l0 0zm-61 62c-1,0 -2,-1 -4,-2 -4,-3 -7,-8 -5,-11 0,-1 2,-2 3,-2 1,0 1,0 2,0 -1,-2 -2,-5 -1,-6 1,-1 2,-2 4,-2 0,-1 0,-1 1,-1 2,0 4,1 6,3 5,2 5,7 6,10l10 7c-1,3 -2,6 -2,9l-11 -7c0,0 -1,0 -1,0 -1,0 -1,0 -1,0 -1,0 -2,0 -3,1 -1,0 -1,0 -2,0 -1,1 -1,1 -2,1l0 0z"/>
  <path class="fil38" d="M107 14c-44,0 -83,32 -91,77 -5,24 1,48 14,68 0,-1 0,-1 0,-1 -10,-15 -15,-33 -15,-51 0,-6 0,-11 1,-16 8,-45 47,-76 91,-76 5,0 10,0 16,1 14,3 28,9 39,17 0,0 0,0 0,0 -11,-9 -24,-15 -39,-17 -6,-1 -11,-2 -16,-2l0 0z"/>
  <path class="fil38" d="M43 132c0,0 -1,0 -1,0 -5,3 -7,8 -5,12 0,0 0,0 0,0 2,-4 4,-8 6,-12l0 0z"/>
  <path class="fil38" d="M46 53c-1,0 -1,0 -1,1 -2,0 -3,1 -4,2 -1,1 0,4 1,6 -1,0 -1,0 -2,0 -1,0 -3,1 -3,2 -2,3 1,8 5,11 2,1 3,2 4,2 1,0 1,0 2,-1 1,0 1,0 2,0 1,-1 2,-1 3,-1 0,0 0,0 1,0 0,0 1,0 1,0l11 7c0,-3 1,-6 2,-9l-10 -7c-1,-3 -1,-8 -6,-10 -2,-2 -4,-3 -6,-3l0 0z"/>
  <path class="fil38" d="M105 53c-2,0 -5,0 -7,1 -12,2 -22,8 -26,19 -1,0 -1,0 -1,1 0,0 0,0 0,1 -1,2 -2,5 -2,9 0,0 0,0 0,1 -1,0 -1,1 -1,1 0,1 0,3 0,4 0,2 0,4 0,5 13,-16 29,-30 45,-41 -1,0 -3,-1 -4,-1 -1,0 -2,0 -2,0 -1,0 -1,0 -2,0l0 0z"/>
  <path class="fil39" d="M91 197c-50,-9 -84,-56 -75,-106 9,-50 57,-84 107,-75 50,9 83,57 74,107 -9,50 -56,83 -106,74zm32 -182c-51,-9 -99,25 -108,76 -9,50 25,98 76,107 50,9 98,-25 107,-75 9,-51 -25,-99 -75,-108z"/>
 </g>
</svg>
